<svg width="50" height="50" viewBox="0 0 50 50" fill="none" xmlns="http://www.w3.org/2000/svg">
<path d="M0 24.0817C0.183673 23.3062 0.285714 22.5103 0.530612 21.7756C1.79592 18.1838 4.28571 15.9185 7.93878 14.9593C8.26531 14.8776 8.34694 14.7756 8.32653 14.4491C8.12245 8.85724 12.4082 3.87764 17.9592 3.30622C22.0408 2.87764 25.3673 4.34703 27.9184 7.55111C28.102 7.79601 28.2653 7.85724 28.551 7.7552C33.6122 6.28581 38.7551 9.16336 40.1837 14.245C40.2857 14.5715 40.4082 14.694 40.7551 14.7348C45.7143 15.347 49.5714 19.4491 49.8775 24.4083C50.1837 29.4083 46.8367 33.9593 41.9796 35.143C41.1224 35.347 40.4898 35.0205 40.4286 34.3062C40.3673 33.7144 40.6939 33.3062 41.3673 33.1429C42.9592 32.7756 44.3469 32.0205 45.449 30.8164C47.6735 28.4083 48.4082 25.5919 47.3673 22.4899C46.3469 19.3674 44.102 17.4899 40.8571 16.8572C40.4286 16.7756 39.9796 16.7756 39.551 16.7348C38.8163 16.6736 38.4694 16.3674 38.3469 15.6327C37.6939 11.8776 34.5918 9.30622 30.8367 9.46948C30.0204 9.5103 29.2041 9.7552 28.4286 10.0001C27.5102 10.3062 27.2041 10.2246 26.6735 9.42867C24.5714 6.30622 21.6122 4.83683 17.898 5.40826C14.1429 5.95928 11.7347 8.24499 10.6531 11.8981C10.3265 13.0409 10.2857 14.2042 10.4694 15.3674C10.5918 16.2042 10.2653 16.6532 9.40816 16.7756C5.22449 17.347 2.30612 20.5103 2.06122 24.7144C1.81633 28.8164 4.93878 32.6532 9 33.245C9.16326 33.2654 9.32653 33.2858 9.4898 33.3266C10.0816 33.4491 10.449 33.9185 10.3673 34.4695C10.2857 35.0613 9.79592 35.4287 9.18367 35.3674C7.91837 35.2246 6.69388 34.8776 5.57143 34.2654C2.44898 32.5511 0.612245 29.9389 0.0816327 26.3878C0.0612245 26.2654 0.0204082 26.143 0 26.0205C0 25.3674 0 24.7144 0 24.0817Z" fill="white"/>
<path d="M35.3469 32.2654C35.7551 32.3675 36.0816 32.4083 36.4082 32.5103C38.0204 33.0818 38.8367 34.7756 38.2857 36.4695C37.3878 39.2042 36.4694 41.9593 35.551 44.694C35.0816 46.0818 33.9592 46.8777 32.4898 46.8777C26.898 46.8777 21.3061 46.8777 15.7347 46.8777C13.8571 46.8777 12.5306 45.592 12.5102 43.7144C12.4898 38.8573 12.4898 34.0001 12.5102 29.143C12.5102 27.4695 13.8367 26.143 15.5102 26.1022C17.0204 26.0614 18.5306 26.0818 20.0408 26.1022C20.9184 26.1022 21.6939 26.4287 22.2245 27.1022C22.9184 27.9593 23.7551 28.2246 24.8571 28.1838C27.2245 28.1022 29.5918 28.1634 31.9796 28.1634C34.0612 28.1634 35.3673 29.4491 35.3673 31.5307C35.3469 31.7756 35.3469 32.0205 35.3469 32.2654ZM24.0612 44.8165C26.7959 44.8165 29.551 44.8165 32.2857 44.8165C33.102 44.8165 33.3878 44.6124 33.6327 43.8369C34.5102 41.245 35.3673 38.6328 36.2449 36.041C36.5918 35.0001 36.1633 34.4083 35.0408 34.4083C29.5918 34.4083 24.1224 34.4083 18.6735 34.4083C17.8163 34.4083 17.551 34.592 17.2857 35.4083C16.4286 38.0001 15.5714 40.5716 14.7143 43.1634C14.3673 44.245 14.7755 44.8165 15.9184 44.8165C18.6327 44.8165 21.3469 44.8165 24.0612 44.8165ZM14.551 36.694C14.5918 36.694 14.6122 36.694 14.6531 36.7144C14.8571 36.0818 15.0816 35.4695 15.2857 34.8369C15.8775 33.041 16.8571 32.3471 18.7551 32.3471C23.3878 32.3471 28.0204 32.3471 32.6531 32.3471C32.8367 32.3471 33.0408 32.3471 33.2653 32.3471C33.2653 32.1226 33.2653 31.9593 33.2653 31.7961C33.2653 30.5308 33 30.245 31.7347 30.245C29.2041 30.245 26.6735 30.2246 24.1429 30.2654C23 30.2859 22.0408 29.9389 21.2857 29.0818C21.1224 28.8981 20.9592 28.694 20.7551 28.5716C20.4694 28.4083 20.1633 28.2042 19.8571 28.2042C18.4694 28.1634 17.102 28.1838 15.7143 28.1838C15.0204 28.1838 14.5918 28.5716 14.5918 29.2654C14.5306 31.7348 14.551 34.2042 14.551 36.694Z" fill="white"/>
</svg>
