<svg width="44" height="44" viewBox="0 0 44 44" fill="none" xmlns="http://www.w3.org/2000/svg">
<path d="M10.514 3.23618C10.278 3.00079 9.95831 2.8686 9.62501 2.8686C9.29172 2.8686 8.97203 3.00079 8.73608 3.23618C8.23455 3.71453 7.56809 3.9814 6.87501 3.9814C6.18194 3.9814 5.51548 3.71453 5.01395 3.23618C4.77779 3.00232 4.45864 2.87149 4.12629 2.8723C3.79393 2.87311 3.47542 3.0055 3.24041 3.24051C3.0054 3.47552 2.87301 3.79403 2.8722 4.12639C2.87139 4.45874 3.00222 4.77789 3.23608 5.01405C3.72959 5.50767 4.00683 6.1771 4.00683 6.87511C4.00683 7.57312 3.72959 8.24255 3.23608 8.73618C3.00069 8.97213 2.8685 9.29182 2.8685 9.62511C2.8685 9.95841 3.00069 10.2781 3.23608 10.5141C3.72959 11.0077 4.00683 11.6771 4.00683 12.3751C4.00683 13.0731 3.72959 13.7426 3.23608 14.2362C3.00069 14.4721 2.8685 14.7918 2.8685 15.1251C2.8685 15.4584 3.00069 15.7781 3.23608 16.014C3.72959 16.5077 4.00683 17.1771 4.00683 17.8751C4.00683 18.5731 3.72959 19.2426 3.23608 19.7362C3.00069 19.9721 2.8685 20.2918 2.8685 20.6251C2.8685 20.9584 3.00069 21.2781 3.23608 21.514C3.72959 22.0077 4.00683 22.6771 4.00683 23.3751C4.00683 24.0731 3.72959 24.7426 3.23608 25.2362C3.00069 25.4721 2.8685 25.7918 2.8685 26.1251C2.8685 26.4584 3.00069 26.7781 3.23608 27.014C3.72959 27.5077 4.00683 28.1771 4.00683 28.8751C4.00683 29.5731 3.72959 30.2426 3.23608 30.7362C3.00222 30.9723 2.87139 31.2915 2.8722 31.6238C2.87301 31.9562 3.0054 32.2747 3.24041 32.5097C3.47542 32.7447 3.79393 32.8771 4.12629 32.8779C4.45864 32.8787 4.77779 32.7479 5.01395 32.514C5.4485 32.0799 6.02134 31.8116 6.63305 31.7556C7.24477 31.6997 7.85676 31.8597 8.36283 32.2079C8.43724 32.259 8.50085 32.3243 8.55003 32.4001C8.59921 32.4758 8.63299 32.5605 8.64944 32.6492C8.6659 32.738 8.6647 32.8292 8.64593 32.9175C8.62716 33.0058 8.59118 33.0896 8.54004 33.164C8.48889 33.2384 8.4236 33.302 8.34787 33.3512C8.27215 33.4004 8.18748 33.4341 8.0987 33.4506C8.00992 33.467 7.91877 33.4658 7.83045 33.4471C7.74213 33.4283 7.65838 33.3923 7.58396 33.3412C7.34268 33.1747 7.05071 33.0981 6.75879 33.1246C6.46687 33.1511 6.19346 33.279 5.98608 33.4862C5.49189 33.9769 4.82337 34.2517 4.12694 34.2505C3.43051 34.2493 2.76296 33.9721 2.27051 33.4796C1.77806 32.9872 1.50087 32.3196 1.49964 31.6232C1.49841 30.9268 1.77324 30.2582 2.26395 29.764C2.49947 29.5282 2.63176 29.2084 2.63176 28.8751C2.63176 28.5418 2.49947 28.2221 2.26395 27.9862C1.77093 27.4923 1.49402 26.823 1.49402 26.1251C1.49402 25.4273 1.77093 24.7579 2.26395 24.264C2.49947 24.0282 2.63176 23.7085 2.63176 23.3751C2.63176 23.0418 2.49947 22.7221 2.26395 22.4862C1.77093 21.9923 1.49402 21.323 1.49402 20.6251C1.49402 19.9273 1.77093 19.2579 2.26395 18.764C2.49947 18.5282 2.63176 18.2085 2.63176 17.8751C2.63176 17.5418 2.49947 17.2221 2.26395 16.9862C1.77093 16.4923 1.49402 15.823 1.49402 15.1251C1.49402 14.4273 1.77093 13.7579 2.26395 13.264C2.49947 13.0282 2.63176 12.7084 2.63176 12.3751C2.63176 12.0418 2.49947 11.7221 2.26395 11.4862C1.77093 10.9923 1.49402 10.323 1.49402 9.62511C1.49402 8.92726 1.77093 8.25793 2.26395 7.76405C2.49947 7.52816 2.63176 7.20845 2.63176 6.87511C2.63176 6.54178 2.49947 6.22206 2.26395 5.98618C1.77324 5.49199 1.49841 4.82346 1.49964 4.12704C1.50087 3.43061 1.77806 2.76306 2.27051 2.27061C2.76296 1.77816 3.43051 1.50097 4.12694 1.49974C4.82337 1.49851 5.49189 1.77334 5.98608 2.26405C6.22546 2.49286 6.54386 2.62056 6.87501 2.62056C7.20617 2.62056 7.52456 2.49286 7.76395 2.26405C8.25799 1.77133 8.92727 1.49463 9.62501 1.49463C10.3228 1.49463 10.992 1.77133 11.4861 2.26405C11.7255 2.49286 12.0439 2.62056 12.375 2.62056C12.7062 2.62056 13.0246 2.49286 13.2639 2.26405C13.758 1.77133 14.4273 1.49463 15.125 1.49463C15.8228 1.49463 16.492 1.77133 16.9861 2.26405C17.2255 2.49286 17.5439 2.62056 17.875 2.62056C18.2062 2.62056 18.5246 2.49286 18.764 2.26405C19.258 1.77133 19.9273 1.49463 20.625 1.49463C21.3228 1.49463 21.992 1.77133 22.4861 2.26405C22.7255 2.49286 23.0439 2.62056 23.375 2.62056C23.7062 2.62056 24.0246 2.49286 24.264 2.26405C24.758 1.77133 25.4273 1.49463 26.125 1.49463C26.8228 1.49463 27.492 1.77133 27.9861 2.26405C28.2255 2.49286 28.5439 2.62056 28.875 2.62056C29.2062 2.62056 29.5246 2.49286 29.764 2.26405C30.2581 1.77334 30.9267 1.49851 31.6231 1.49974C32.3195 1.50097 32.9871 1.77816 33.4795 2.27061C33.972 2.76306 34.2492 3.43061 34.2504 4.12704C34.2516 4.82346 33.9768 5.49199 33.4861 5.98618C33.2794 6.19348 33.1516 6.46646 33.1247 6.75797C33.0979 7.04947 33.1737 7.3412 33.3391 7.58276C33.436 7.73326 33.4705 7.91565 33.435 8.09114C33.3996 8.26663 33.2971 8.42137 33.1493 8.52247C33.0016 8.62356 32.8202 8.66303 32.6438 8.63248C32.4674 8.60193 32.3099 8.50377 32.2047 8.35888C31.8581 7.85276 31.6994 7.24143 31.7559 6.63064C31.8124 6.01985 32.0806 5.44801 32.5141 5.01405C32.6318 4.89752 32.7253 4.75889 32.7892 4.60612C32.8531 4.45335 32.8863 4.28945 32.8867 4.12384C32.8871 3.95823 32.8547 3.79417 32.7916 3.64109C32.7284 3.48801 32.6355 3.34892 32.5184 3.23182C32.4013 3.11471 32.2623 3.0219 32.1092 2.95871C31.9561 2.89552 31.792 2.8632 31.6264 2.86361C31.4608 2.86401 31.2969 2.89713 31.1441 2.96107C30.9914 3.02501 30.8527 3.1185 30.7362 3.23618C30.2347 3.71453 29.5682 3.9814 28.8751 3.9814C28.1821 3.9814 27.5156 3.71453 27.0141 3.23618C26.7781 3.00079 26.4584 2.8686 26.1251 2.8686C25.7919 2.8686 25.4722 3.00079 25.2362 3.23618C24.7347 3.71453 24.0682 3.9814 23.3751 3.9814C22.6821 3.9814 22.0156 3.71453 21.5141 3.23618C21.2781 3.00079 20.9584 2.8686 20.6252 2.8686C20.2919 2.8686 19.9722 3.00079 19.7362 3.23618C19.2347 3.71453 18.5682 3.9814 17.8752 3.9814C17.1821 3.9814 16.5156 3.71453 16.0141 3.23618C15.7781 3.00079 15.4584 2.8686 15.1252 2.8686C14.7919 2.8686 14.4722 3.00079 14.2362 3.23618C13.7347 3.71457 13.0682 3.98147 12.3751 3.98147C11.682 3.98147 11.0155 3.71457 10.514 3.23618ZM41.7361 19.7362C41.5006 19.9721 41.3683 20.2918 41.3683 20.6251C41.3683 20.9585 41.5006 21.2782 41.7361 21.514C42.2291 22.0079 42.506 22.6773 42.506 23.3751C42.506 24.073 42.2291 24.7423 41.7361 25.2362C41.5006 25.4721 41.3683 25.7918 41.3683 26.1251C41.3683 26.4584 41.5006 26.7782 41.7361 27.014C42.2291 27.5079 42.506 28.1773 42.506 28.8751C42.506 29.573 42.2291 30.2423 41.7361 30.7362C41.5006 30.9721 41.3683 31.2918 41.3683 31.6251C41.3683 31.9584 41.5006 32.2782 41.7361 32.514C42.2291 33.0079 42.506 33.6773 42.506 34.3751C42.506 35.073 42.2291 35.7423 41.7361 36.2362C41.5006 36.4721 41.3683 36.7918 41.3683 37.1251C41.3683 37.4585 41.5006 37.7782 41.7361 38.014C42.2268 38.5082 42.5016 39.1768 42.5004 39.8732C42.4992 40.5696 42.222 41.2372 41.7295 41.7296C41.2371 42.2221 40.5695 42.4993 39.8731 42.5005C39.1767 42.5017 38.5081 42.2269 38.014 41.7362C37.7746 41.5074 37.4562 41.3797 37.125 41.3797C36.7939 41.3797 36.4755 41.5074 36.2361 41.7362C35.742 42.2289 35.0728 42.5056 34.375 42.5056C33.6773 42.5056 33.008 42.2289 32.514 41.7362C32.2746 41.5074 31.9562 41.3797 31.625 41.3797C31.2939 41.3797 30.9755 41.5074 30.7361 41.7362C30.242 42.2289 29.5728 42.5056 28.875 42.5056C28.1773 42.5056 27.508 42.2289 27.014 41.7362C26.7746 41.5074 26.4562 41.3797 26.125 41.3797C25.7939 41.3797 25.4755 41.5074 25.2361 41.7362C24.742 42.2289 24.0728 42.5056 23.375 42.5056C22.6773 42.5056 22.008 42.2289 21.514 41.7362C21.2746 41.5074 20.9562 41.3797 20.625 41.3797C20.2939 41.3797 19.9755 41.5074 19.7361 41.7362C19.242 42.2289 18.5728 42.5056 17.875 42.5056C17.1773 42.5056 16.508 42.2289 16.0139 41.7362C15.7746 41.5074 15.4562 41.3797 15.125 41.3797C14.7939 41.3797 14.4755 41.5074 14.2361 41.7362C13.7419 42.2269 13.0734 42.5017 12.3769 42.5005C11.6805 42.4993 11.013 42.2221 10.5205 41.7296C10.0281 41.2372 9.75087 40.5696 9.74964 39.8732C9.74841 39.1768 10.0232 38.5082 10.514 38.014C10.7495 37.7782 10.8818 37.4585 10.8818 37.1251C10.8818 36.7918 10.7495 36.4721 10.514 36.2362C10.0209 35.7423 9.74402 35.073 9.74402 34.3751C9.74402 33.6773 10.0209 33.0079 10.514 32.514C10.7495 32.2782 10.8818 31.9584 10.8818 31.6251C10.8818 31.2918 10.7495 30.9721 10.514 30.7362C10.0209 30.2423 9.74402 29.573 9.74402 28.8751C9.74402 28.1773 10.0209 27.5079 10.514 27.014C10.7495 26.7782 10.8818 26.4584 10.8818 26.1251C10.8818 25.7918 10.7495 25.4721 10.514 25.2362C10.0209 24.7423 9.74402 24.073 9.74402 23.3751C9.74402 22.6773 10.0209 22.0079 10.514 21.514C10.7495 21.2782 10.8818 20.9585 10.8818 20.6251C10.8818 20.2918 10.7495 19.9721 10.514 19.7362C10.0209 19.2423 9.74402 18.573 9.74402 17.8751C9.74402 17.1773 10.0209 16.5079 10.514 16.014C10.7495 15.7782 10.8818 15.4584 10.8818 15.1251C10.8818 14.7918 10.7495 14.4721 10.514 14.2362C10.0232 13.742 9.74841 13.0735 9.74964 12.377C9.75087 11.6806 10.0281 11.0131 10.5205 10.5206C11.013 10.0282 11.6805 9.75097 12.3769 9.74973C13.0734 9.7485 13.7419 10.0233 14.2361 10.5141C14.4755 10.7429 14.7939 10.8706 15.125 10.8706C15.4562 10.8706 15.7746 10.7429 16.0139 10.5141C16.508 10.0213 17.1773 9.74463 17.875 9.74463C18.5728 9.74463 19.242 10.0213 19.7361 10.5141C19.9755 10.7429 20.2939 10.8706 20.625 10.8706C20.9562 10.8706 21.2746 10.7429 21.514 10.5141C22.008 10.0213 22.6773 9.74463 23.375 9.74463C24.0728 9.74463 24.742 10.0213 25.2361 10.5141C25.4755 10.7429 25.7939 10.8706 26.125 10.8706C26.4562 10.8706 26.7746 10.7429 27.014 10.5141C27.508 10.0213 28.1773 9.74463 28.875 9.74463C29.5728 9.74463 30.242 10.0213 30.7361 10.5141C30.9755 10.7429 31.2939 10.8706 31.625 10.8706C31.9562 10.8706 32.2746 10.7429 32.514 10.5141C33.008 10.0213 33.6773 9.74463 34.375 9.74463C35.0728 9.74463 35.742 10.0213 36.2361 10.5141C36.4755 10.7429 36.7939 10.8706 37.125 10.8706C37.4562 10.8706 37.7746 10.7429 38.014 10.5141C38.5081 10.0233 39.1767 9.7485 39.8731 9.74973C40.5695 9.75097 41.2371 10.0282 41.7295 10.5206C42.222 11.0131 42.4992 11.6806 42.5004 12.377C42.5016 13.0735 42.2268 13.742 41.7361 14.2362C41.5006 14.4721 41.3683 14.7918 41.3683 15.1251C41.3683 15.4584 41.5006 15.7782 41.7361 16.014C42.2291 16.5079 42.506 17.1773 42.506 17.8751C42.506 18.573 42.2291 19.2423 41.7361 19.7362ZM14.4036 40.1258L12.1398 37.8621C12.0203 38.286 11.7954 38.6727 11.4861 38.9862C11.2522 39.2223 11.1214 39.5415 11.1222 39.8738C11.123 40.2062 11.2554 40.5247 11.4904 40.7597C11.7254 40.9947 12.0439 41.1271 12.3763 41.1279C12.7086 41.1287 13.0278 40.9979 13.2639 40.764C13.5813 40.455 13.9743 40.2349 14.4036 40.1258ZM19.9036 40.1258L12.1398 32.3621C12.0203 32.786 11.7954 33.1727 11.4861 33.4862C11.2507 33.7221 11.1185 34.0418 11.1185 34.3751C11.1185 34.7084 11.2507 35.0281 11.4861 35.264L16.9861 40.764C17.222 40.9994 17.5417 41.1316 17.875 41.1316C18.2083 41.1316 18.528 40.9994 18.764 40.764C19.0813 40.455 19.4743 40.2349 19.9036 40.1258ZM25.4036 40.1258L12.1398 26.8621C12.0203 27.286 11.7954 27.6727 11.4861 27.9862C11.2507 28.2221 11.1185 28.5418 11.1185 28.8751C11.1185 29.2084 11.2507 29.5281 11.4861 29.764L22.4861 40.764C22.722 40.9994 23.0417 41.1316 23.375 41.1316C23.7083 41.1316 24.028 40.9994 24.264 40.764C24.5813 40.455 24.9743 40.2349 25.4036 40.1258ZM30.9036 40.1258L12.1398 21.3621C12.0203 21.786 11.7954 22.1727 11.4861 22.4862C11.2507 22.7221 11.1185 23.0418 11.1185 23.3751C11.1185 23.7084 11.2507 24.0281 11.4861 24.264L27.9861 40.764C28.222 40.9994 28.5417 41.1316 28.875 41.1316C29.2083 41.1316 29.528 40.9994 29.764 40.764C30.0813 40.455 30.4743 40.2349 30.9036 40.1258ZM36.388 40.1103L12.1399 15.8622C12.0204 16.2861 11.7955 16.6728 11.4861 16.9862C11.2508 17.2222 11.1186 17.5419 11.1186 17.8752C11.1186 18.2085 11.2508 18.5282 11.4861 18.7641L33.4861 40.7641C33.7221 40.9995 34.0418 41.1317 34.3751 41.1317C34.7084 41.1317 35.0281 40.9995 35.264 40.7641C35.5774 40.4547 35.9641 40.2298 36.388 40.1103ZM40.764 38.9862L13.2639 11.4862C13.0278 11.2523 12.7086 11.1215 12.3763 11.1223C12.0439 11.1231 11.7254 11.2555 11.4904 11.4905C11.2554 11.7255 11.123 12.044 11.1222 12.3764C11.1214 12.7087 11.2522 13.0279 11.4861 13.264L38.9861 40.764C39.2222 40.9979 39.5414 41.1287 39.8737 41.1279C40.2061 41.1271 40.5246 40.9947 40.7596 40.7597C40.9946 40.5247 41.127 40.2062 41.1278 39.8738C41.1286 39.5415 40.9978 39.2223 40.764 38.9862ZM40.764 33.4862L18.764 11.4862C18.528 11.2508 18.2083 11.1186 17.875 11.1186C17.5417 11.1186 17.222 11.2508 16.9861 11.4862C16.6688 11.7952 16.2757 12.0153 15.8464 12.1244L40.1102 36.3881C40.2297 35.9642 40.4546 35.5775 40.764 35.264C40.9993 35.0281 41.1315 34.7084 41.1315 34.3751C41.1315 34.0418 40.9993 33.7221 40.764 33.4862ZM40.764 27.9862L24.264 11.4862C24.028 11.2508 23.7083 11.1186 23.375 11.1186C23.0417 11.1186 22.722 11.2508 22.4861 11.4862C22.1688 11.7952 21.7757 12.0153 21.3464 12.1244L40.1102 30.8881C40.2297 30.4642 40.4546 30.0775 40.764 29.764C40.9993 29.5281 41.1315 29.2084 41.1315 28.8751C41.1315 28.5418 40.9993 28.2221 40.764 27.9862ZM40.764 22.4862L29.764 11.4862C29.528 11.2508 29.2083 11.1186 28.875 11.1186C28.5417 11.1186 28.222 11.2508 27.9861 11.4862C27.6688 11.7952 27.2757 12.0153 26.8464 12.1244L40.1102 25.3881C40.2297 24.9642 40.4546 24.5775 40.764 24.264C40.9993 24.0281 41.1315 23.7084 41.1315 23.3751C41.1315 23.0418 40.9993 22.7221 40.764 22.4862ZM40.764 16.9862L35.264 11.4862C35.028 11.2508 34.7083 11.1186 34.375 11.1186C34.0417 11.1186 33.722 11.2508 33.4861 11.4862C33.1688 11.7952 32.7757 12.0153 32.3464 12.1244L40.1102 19.8881C40.2297 19.4642 40.4546 19.0775 40.764 18.764C40.9993 18.5281 41.1315 18.2084 41.1315 17.8751C41.1315 17.5418 40.9993 17.2221 40.764 16.9862ZM40.764 11.4862C40.528 11.2508 40.2083 11.1186 39.875 11.1186C39.5417 11.1186 39.222 11.2508 38.9861 11.4862C38.6688 11.7952 38.2757 12.0153 37.8464 12.1244L40.1102 14.3881C40.2297 13.9642 40.4546 13.5775 40.764 13.264C40.9993 13.0281 41.1315 12.7084 41.1315 12.3751C41.1315 12.0418 40.9993 11.7221 40.764 11.4862ZM6.87501 6.18761C6.73904 6.18761 6.60612 6.22793 6.49306 6.30348C6.38 6.37902 6.29188 6.48639 6.23985 6.61202C6.18781 6.73764 6.1742 6.87588 6.20072 7.00924C6.22725 7.1426 6.29273 7.2651 6.38888 7.36125C6.48503 7.4574 6.60753 7.52288 6.74089 7.5494C6.87425 7.57593 7.01248 7.56232 7.13811 7.51028C7.26373 7.45824 7.37111 7.37013 7.44665 7.25707C7.52219 7.14401 7.56251 7.01109 7.56251 6.87511C7.56251 6.69278 7.49008 6.51791 7.36115 6.38898C7.23222 6.26005 7.05735 6.18761 6.87501 6.18761ZM6.87501 11.6876C6.73904 11.6876 6.60612 11.7279 6.49306 11.8035C6.38 11.879 6.29188 11.9864 6.23985 12.112C6.18781 12.2376 6.1742 12.3759 6.20072 12.5092C6.22725 12.6426 6.29273 12.7651 6.38888 12.8612C6.48503 12.9574 6.60753 13.0229 6.74089 13.0494C6.87425 13.0759 7.01248 13.0623 7.13811 13.0103C7.26373 12.9582 7.37111 12.8701 7.44665 12.7571C7.52219 12.644 7.56251 12.5111 7.56251 12.3751C7.56251 12.1928 7.49008 12.0179 7.36115 11.889C7.23222 11.76 7.05735 11.6876 6.87501 11.6876ZM6.87501 17.1876C6.73904 17.1876 6.60612 17.2279 6.49306 17.3035C6.38 17.379 6.29188 17.4864 6.23985 17.612C6.18781 17.7376 6.1742 17.8759 6.20072 18.0092C6.22725 18.1426 6.29273 18.2651 6.38888 18.3612C6.48503 18.4574 6.60753 18.5229 6.74089 18.5494C6.87425 18.5759 7.01248 18.5623 7.13811 18.5103C7.26373 18.4582 7.37111 18.3701 7.44665 18.2571C7.52219 18.144 7.56251 18.0111 7.56251 17.8751C7.56251 17.6928 7.49008 17.5179 7.36115 17.389C7.23222 17.26 7.05735 17.1876 6.87501 17.1876ZM6.87501 22.6876C6.73904 22.6876 6.60612 22.7279 6.49306 22.8035C6.38 22.879 6.29188 22.9864 6.23985 23.112C6.18781 23.2376 6.1742 23.3759 6.20072 23.5092C6.22725 23.6426 6.29273 23.7651 6.38888 23.8612C6.48503 23.9574 6.60753 24.0229 6.74089 24.0494C6.87425 24.0759 7.01248 24.0623 7.13811 24.0103C7.26373 23.9582 7.37111 23.8701 7.44665 23.7571C7.52219 23.644 7.56251 23.5111 7.56251 23.3751C7.56251 23.1928 7.49008 23.0179 7.36115 22.889C7.23222 22.76 7.05735 22.6876 6.87501 22.6876ZM6.87501 28.1876C6.73904 28.1876 6.60612 28.2279 6.49306 28.3035C6.38 28.379 6.29188 28.4864 6.23985 28.612C6.18781 28.7376 6.1742 28.8759 6.20072 29.0092C6.22725 29.1426 6.29273 29.2651 6.38888 29.3612C6.48503 29.4574 6.60753 29.5229 6.74089 29.5494C6.87425 29.5759 7.01248 29.5623 7.13811 29.5103C7.26373 29.4582 7.37111 29.3701 7.44665 29.2571C7.52219 29.144 7.56251 29.0111 7.56251 28.8751C7.56251 28.6928 7.49008 28.5179 7.36115 28.389C7.23222 28.26 7.05735 28.1876 6.87501 28.1876ZM11.6875 6.87511C11.6875 7.01109 11.7278 7.14401 11.8034 7.25707C11.8789 7.37013 11.9863 7.45824 12.1119 7.51028C12.2375 7.56232 12.3758 7.57593 12.5091 7.5494C12.6425 7.52288 12.765 7.4574 12.8611 7.36125C12.9573 7.2651 13.0228 7.1426 13.0493 7.00924C13.0758 6.87588 13.0622 6.73764 13.0102 6.61202C12.9581 6.48639 12.87 6.37902 12.757 6.30348C12.6439 6.22793 12.511 6.18761 12.375 6.18761C12.1927 6.18761 12.0178 6.26005 11.8889 6.38898C11.7599 6.51791 11.6875 6.69278 11.6875 6.87511ZM17.1875 6.87511C17.1875 7.01109 17.2278 7.14401 17.3034 7.25707C17.3789 7.37013 17.4863 7.45824 17.6119 7.51028C17.7375 7.56232 17.8758 7.57593 18.0091 7.5494C18.1425 7.52288 18.265 7.4574 18.3611 7.36125C18.4573 7.2651 18.5228 7.1426 18.5493 7.00924C18.5758 6.87588 18.5622 6.73764 18.5102 6.61202C18.4581 6.48639 18.37 6.37902 18.257 6.30348C18.1439 6.22793 18.011 6.18761 17.875 6.18761C17.6927 6.18761 17.5178 6.26005 17.3889 6.38898C17.2599 6.51791 17.1875 6.69278 17.1875 6.87511ZM22.6875 6.87511C22.6875 7.01109 22.7278 7.14401 22.8034 7.25707C22.8789 7.37013 22.9863 7.45824 23.1119 7.51028C23.2375 7.56232 23.3758 7.57593 23.5091 7.5494C23.6425 7.52288 23.765 7.4574 23.8611 7.36125C23.9573 7.2651 24.0228 7.1426 24.0493 7.00924C24.0758 6.87588 24.0622 6.73764 24.0102 6.61202C23.9581 6.48639 23.87 6.37902 23.757 6.30348C23.6439 6.22793 23.511 6.18761 23.375 6.18761C23.1927 6.18761 23.0178 6.26005 22.8889 6.38898C22.7599 6.51791 22.6875 6.69278 22.6875 6.87511ZM28.1875 6.87511C28.1875 7.01109 28.2278 7.14401 28.3034 7.25707C28.3789 7.37013 28.4863 7.45824 28.6119 7.51028C28.7375 7.56232 28.8758 7.57593 29.0091 7.5494C29.1425 7.52288 29.265 7.4574 29.3611 7.36125C29.4573 7.2651 29.5228 7.1426 29.5493 7.00924C29.5758 6.87588 29.5622 6.73764 29.5102 6.61202C29.4581 6.48639 29.37 6.37902 29.257 6.30348C29.1439 6.22793 29.011 6.18761 28.875 6.18761C28.6927 6.18761 28.5178 6.26005 28.3889 6.38898C28.2599 6.51791 28.1875 6.69278 28.1875 6.87511Z" fill="#1E2023"/>
</svg>
